<?xml version="1.0" encoding="UTF-8"?>
<!DOCTYPE svg PUBLIC "-//W3C//DTD SVG 1.1//EN" "http://www.w3.org/Graphics/SVG/1.1/DTD/svg11.dtd">
<svg xmlns="http://www.w3.org/2000/svg" viewBox="0 0 17.78225 17.25403">
  <title>kubernetes-24px</title>
  <g>
    <path fill="#FFFFFF" d="M10.2244,11.81076a.32891.32891,0,0,0-.06406.00554l-.00315-.004L8.247,12.1365a3.83122,3.83122,0,0,0,1.53779,1.92443l.74-1.78844-.00553-.00711a.32282.32282,0,0,0,.01818-.20082A.32623.32623,0,0,0,10.2244,11.81076Z" transform="translate(-2.95921 -1.8971)"/>
    <path fill="#FFFFFF" d="M10.751,9.22145a.32623.32623,0,0,0,.51786-.24984l.00793-.004.10988-1.94105a3.90543,3.90543,0,0,0-.39452.068A3.81131,3.81131,0,0,0,9.15626,8.09479L10.7478,9.223Z" transform="translate(-2.95921 -1.8971)"/>
    <path fill="#FFFFFF" d="M12.42555,8.96526a.32667.32667,0,0,0,.51862.24908l.00553.00233L14.531,8.09555A3.84407,3.84407,0,0,0,12.314,7.0266L12.424,8.9645Z" transform="translate(-2.95921 -1.8971)"/>
    <polygon fill="#FFFFFF" points="8.355 9.362 8.891 9.62 9.425 9.363 9.558 8.785 9.188 8.323 8.593 8.323 8.222 8.785 8.355 9.362"/>
    <path fill="#FFFFFF" d="M9.90263,10.68807a.32613.32613,0,0,0,.12807-.56059l.00157-.00787L8.57906,8.81976A3.81141,3.81141,0,0,0,8.03829,11.232l1.86276-.53768Z" transform="translate(-2.95921 -1.8971)"/>
    <path fill="#FFFFFF" d="M15.11051,8.82058l-1.44528,1.29349.00082.004a.32631.32631,0,0,0,.12807.56054l.00157.00792,1.87227.5392a3.88185,3.88185,0,0,0-.55745-2.40511Z" transform="translate(-2.95921 -1.8971)"/>
    <path fill="#FFFFFF" d="M12.13694,12.76587a.32589.32589,0,0,0-.57475.00076h-.00163L10.62131,14.465a3.82666,3.82666,0,0,0,2.08806.10749,3.88381,3.88381,0,0,0,.37633-.10516l-.94164-1.70141Z" transform="translate(-2.95921 -1.8971)"/>
    <path fill="#FFFFFF" d="M20.71181,12.39589l-1.52747-6.635a1.17433,1.17433,0,0,0-.63964-.79533L12.36189,2.01329a1.19121,1.19121,0,0,0-1.02622,0L5.15367,4.9671a1.17427,1.17427,0,0,0-.63963.79539l-1.52514,6.635a1.1646,1.1646,0,0,0,.16053.899q.03121.04827.06715.09332l4.279,5.32016a1.1859,1.1859,0,0,0,.92427.44121l6.86191-.00157a1.186,1.186,0,0,0,.92427-.4404l4.27732-5.321A1.16516,1.16516,0,0,0,20.71181,12.39589ZM18.36,12.31522a.39138.39138,0,0,1-.47753.27035l-.00554-.00075-.00711-.00239c-.0306-.00671-.0689-.01341-.09565-.02058a3.083,3.083,0,0,1-.33209-.12807A3.45992,3.45992,0,0,0,16.797,12.244a.29193.29193,0,0,0-.20711.07672c-.027-.00548-.11029-.02017-.15815-.02769a4.81541,4.81541,0,0,1-2.13312,2.68339,1.26568,1.26568,0,0,0,.06167.14946.29.29,0,0,0-.0285.21819,3.46281,3.46281,0,0,0,.32812.58746,3.08,3.08,0,0,1,.19849.2949c.01463.02774.034.0703.0482.09962a.37173.37173,0,1,1-.66889.31629c-.014-.029-.03387-.06751-.04582-.0949a3.09362,3.09362,0,0,1-.10755-.3392,3.45125,3.45125,0,0,0-.2538-.62221.29293.29293,0,0,0-.189-.11465c-.01172-.02023-.05549-.10056-.079-.14229a4.78919,4.78919,0,0,1-3.41478-.00875l-.08377.15185a.29959.29959,0,0,0-.15948.07765,2.58541,2.58541,0,0,0-.28645.66475,3.10062,3.10062,0,0,1-.10673.33914c-.01189.02723-.03183.06523-.04588.09409v.00081l-.00075.00082a.37152.37152,0,1,1-.66814-.31705c.01416-.02932.03282-.07193.04745-.09962a3.09336,3.09336,0,0,1,.19848-.29571,3.61648,3.61648,0,0,0,.33488-.602.3666.3666,0,0,0-.03287-.20921l.06721-.16129A4.81523,4.81523,0,0,1,7.2777,12.30018l-.16129.02769a.4082.4082,0,0,0-.21271-.07514,3.4577,3.4577,0,0,0-.64511.18974,3.08907,3.08907,0,0,1-.33209.12731c-.02675.00717-.06511.01463-.09565.02133l-.00712.00239-.00553.00076a.37137.37137,0,1,1-.16444-.72107l.00553-.00157.00315-.00076c.031-.00729.07048-.01754.09881-.023a3.09909,3.09909,0,0,1,.355-.02844,3.453,3.453,0,0,0,.66336-.10912.51145.51145,0,0,0,.1589-.16048l.155-.04506a4.78791,4.78791,0,0,1,.75505-3.33807l-.11862-.106a.411.411,0,0,0-.07433-.21346,3.44836,3.44836,0,0,0-.55027-.38659,3.09331,3.09331,0,0,1-.30679-.17948c-.02238-.01656-.05228-.04192-.07665-.06168l-.00554-.004A.39217.39217,0,0,1,6.62542,6.67a.35645.35645,0,0,1,.29489-.13046.43984.43984,0,0,1,.25777.09729c.02524.01994.05969.04617.08225.06558a3.07982,3.07982,0,0,1,.24348.25858,3.45664,3.45664,0,0,0,.49892.45065.2923.2923,0,0,0,.21976.02134c.02128.01568.0928.067.13366.0949a4.75972,4.75972,0,0,1,2.41776-1.38128,4.81491,4.81491,0,0,1,.66884-.10277l.00874-.15657a.4033.4033,0,0,0,.12014-.19131,3.4563,3.4563,0,0,0-.04109-.67123,3.09061,3.09061,0,0,1-.0506-.35185c-.001-.02687.00047-.06406.00076-.0949l-.00076-.01026a.37206.37206,0,1,1,.74,0c.00012.03218.00193.07537.00082.10516a3.09061,3.09061,0,0,1-.0506.35185,3.46278,3.46278,0,0,0-.04191.67123.29287.29287,0,0,0,.121.185c.00111.02682.00543.116.00869.16526a4.84938,4.84938,0,0,1,3.07162,1.484l.14077-.10038a.412.412,0,0,0,.22454-.02454,3.46643,3.46643,0,0,0,.49886-.45141,3.1027,3.1027,0,0,1,.2443-.25858c.02273-.01947.057-.04559.08225-.06558a.372.372,0,1,1,.461.57872c-.02507.02017-.05765.048-.08144.06563a3.10019,3.10019,0,0,1-.3076.17948,3.45285,3.45285,0,0,0-.55027.38659.292.292,0,0,0-.06954.20956c-.02058.01883-.09292.083-.13128.11775a4.80689,4.80689,0,0,1,.77085,3.3302l.14946.04348a.41482.41482,0,0,0,.15972.16048,3.45224,3.45224,0,0,0,.66336.10912,3.09916,3.09916,0,0,1,.355.02845c.03078.00583.07578.01813.10749.0253A.39153.39153,0,0,1,18.36,12.31522Z" transform="translate(-2.95921 -1.8971)"/>
    <path fill="#FFFFFF" d="M13.53559,11.80837a.32608.32608,0,0,0-.35814.4499l-.00239.00314.74794,1.80664a3.81608,3.81608,0,0,0,1.54251-1.93785l-1.92677-.32579Z" transform="translate(-2.95921 -1.8971)"/>
  </g>
</svg>